<svg id="ebhaDyKUB1C1" xmlns="http://www.w3.org/2000/svg" xmlns:xlink="http://www.w3.org/1999/xlink" viewBox="0 0 750 750" shape-rendering="geometricPrecision" text-rendering="geometricPrecision">
<style><![CDATA[
#ebhaDyKUB1C2_tr {animation: ebhaDyKUB1C2_tr__tr 5000ms linear infinite normal forwards}@keyframes ebhaDyKUB1C2_tr__tr { 0% {transform: translate(375px,375px) rotate(0deg)} 100% {transform: translate(375px,375px) rotate(360deg)}}
]]></style>
<g id="ebhaDyKUB1C2_tr" transform="translate(375,375) rotate(0)"><g transform="translate(-375,-375)"><path d="M25,500h350c55.2,0,100-44.8,100-100v-26.8c-29.4,17-63.6,26.8-100,26.8h-200v-200C175,89.5,264.5,0,375,0C167.9,0,0,167.9,0,375c0,43.9,7.5,86,21.4,125.1c1.2,0,2.4-.1,3.6-.1Z" fill="#17a093"/><path d="M630,100h-255c-55.2,0-100,44.8-100,100v100h100c55.2,0,100-44.8,100-100h100v200c0,110.5-89.5,200-200,200h-300c68.4,91.1,177.3,150,300,150-27.6,0-50-22.4-50-50s22.4-50,50-50s50,22.4,50,50-22.4,50-50,50c207.1,0,375-167.9,375-375c0-108.6-46.2-206.5-120-275Z" fill="#17a093"/></g></g></svg>
